<svg width="1772" height="645" viewBox="0 0 1772 645" fill="none" xmlns="http://www.w3.org/2000/svg">
<g opacity="0.1" clip-path="url(#clip0_89_4744)">
<path d="M1772 0H0V1329H1772V0Z" fill="#F3F4F6"/>
<path d="M1216.93 641.907C1238.31 658.918 1259.83 654.156 1285.09 641.431C1285.09 641.431 1258.66 694.945 1285.09 701.136C1316 708.423 1366.44 665.12 1375.57 638.23C1384.56 611.672 1347.93 622.293 1327.29 654.433C1311.37 679.219 1296.32 721.558 1315.05 733.885C1343.57 752.613 1416.28 685.819 1425.62 617.797" stroke="#414189" stroke-width="2.745" stroke-linecap="round" stroke-linejoin="round"/>
<path d="M1165.22 190.822L1176.16 166.623L1183.46 191.476L1213.37 178.662L1195.55 205.076L1218.08 220.005L1188.7 222.176L1192.47 250.561L1172.1 230.46L1153.17 245.311L1157.24 222.098L1131.18 220.049L1154.58 204.921L1141.48 180.113L1165.22 190.822Z" stroke="#414189" stroke-width="2.745" stroke-linecap="round" stroke-linejoin="round"/>
<path d="M938.54 185.063H436.344C402.333 185.063 374.834 212.562 374.834 246.563V718.391C374.834 752.402 402.333 779.902 436.344 779.902H938.54C972.54 779.902 1000.04 752.402 1000.04 718.391V246.563C1000.04 212.562 972.43 185.063 938.54 185.063Z" fill="#F3F4F6" stroke="#414189" stroke-width="2.745"/>
<path d="M442.082 294.274C456.058 294.274 467.377 282.955 467.377 268.979C467.377 255.013 456.058 243.694 442.082 243.694C428.116 243.694 416.797 255.013 416.797 268.979C416.797 282.955 428.116 294.274 442.082 294.274Z" fill="#F3F4F6" stroke="#414189" stroke-width="2.745"/>
<path d="M515.52 294.274C529.485 294.274 540.804 282.955 540.804 268.979C540.804 255.013 529.485 243.694 515.52 243.694C501.543 243.694 490.224 255.013 490.224 268.979C490.224 282.955 501.543 294.274 515.52 294.274Z" fill="#F3F4F6" stroke="#414189" stroke-width="2.745"/>
<path d="M589.058 294.274C603.023 294.274 614.342 282.955 614.342 268.979C614.342 255.013 603.023 243.694 589.058 243.694C575.081 243.694 563.774 255.013 563.774 268.979C563.774 282.955 575.081 294.274 589.058 294.274Z" fill="#F3F4F6" stroke="#414189" stroke-width="2.745"/>
<path d="M1295.11 337.655C1254.25 328.728 1214 354.544 1205 395.267C1200.1 417.483 1205.55 440.829 1219.73 458.616C1228.96 470.089 1232.33 485.118 1228.95 499.361L1230.82 508.498L1274.19 519.119L1282.64 512.518C1286.1 498.397 1295.93 486.602 1309.29 480.766C1347.54 464.009 1365.05 419.51 1348.31 381.146C1338.56 359.029 1318.79 342.805 1295.11 337.655Z" fill="#F3F4F6" stroke="#414189" stroke-width="2.745"/>
<path d="M1228.92 499.46L1224.33 518.177C1220.7 533.007 1229.73 547.913 1244.56 551.546C1259.39 555.179 1274.3 546.141 1277.93 531.312L1282.52 512.595L1228.92 499.46Z" fill="#F3F4F6" stroke="#414189" stroke-width="2.745"/>
<path d="M1228.95 499.361L1282.64 512.518" stroke="#414189" stroke-width="2.745" stroke-linecap="round" stroke-linejoin="round"/>
<path d="M1225.32 514.19L1278.91 527.314" stroke="#414189" stroke-width="2.745" stroke-linecap="round" stroke-linejoin="round"/>
<path d="M1246.73 503.724L1251.97 482.338C1255.48 468.018 1253.24 452.835 1245.59 440.231C1239.8 430.685 1238.14 419.322 1240.8 408.479C1242.67 400.815 1250.41 396.197 1257.99 398.058C1265.65 399.929 1270.27 407.682 1268.41 415.246L1266.46 423.22C1265.25 428.137 1268.26 433.099 1273.17 434.306C1278.09 435.502 1283.05 432.49 1284.26 427.584L1286.21 419.61C1288.09 411.935 1295.83 407.327 1303.39 409.177L1303.61 409.232C1311.27 411.104 1315.89 418.845 1314.03 426.421C1311.37 437.263 1304.52 446.644 1294.97 452.436C1282.34 460.177 1273.26 472.482 1269.73 486.901L1264.61 508.21" stroke="#414189" stroke-width="2.745" stroke-linecap="round" stroke-linejoin="round"/>
<path d="M823.249 318.539C739.943 318.539 767.387 419.477 687.027 419.477C644.887 419.477 660.569 492.981 624.298 492.981C582.158 492.981 599.8 386.163 550.793 386.163" stroke="#414189" stroke-width="2.745"/>
<path d="M823.25 325.395V579.234" stroke="#414189" stroke-width="2.745"/>
<path d="M686.828 423.397V579.234" stroke="#414189" stroke-width="2.745"/>
<path d="M550.306 395.964V579.234" stroke="#414189" stroke-width="2.745"/>
<path d="M540.017 578.248H833.051" stroke="#414189" stroke-width="2.745"/>
<path d="M550.306 402.82C559.509 402.82 566.974 395.355 566.974 386.163C566.974 376.96 559.509 369.495 550.306 369.495C541.103 369.495 533.649 376.96 533.649 386.163C533.649 395.355 541.103 402.82 550.306 402.82Z" fill="#F3F4F6" stroke="#414189" stroke-width="2.745"/>
<path d="M687.027 436.145C696.23 436.145 703.684 428.68 703.684 419.477C703.684 410.284 696.23 402.82 687.027 402.82C677.824 402.82 670.359 410.284 670.359 419.477C670.359 428.68 677.824 436.145 687.027 436.145Z" fill="#F3F4F6" stroke="#414189" stroke-width="2.745"/>
<path d="M823.25 335.196C832.453 335.196 839.918 327.742 839.918 318.539C839.918 309.336 832.453 301.871 823.25 301.871C814.046 301.871 806.593 309.336 806.593 318.539C806.593 327.742 814.046 335.196 823.25 335.196Z" fill="#F3F4F6" stroke="#414189" stroke-width="2.745"/>
<path d="M575.169 707.405C592.391 690.172 592.391 662.252 575.169 645.03C557.947 627.809 530.027 627.809 512.795 645.03C495.573 662.252 495.573 690.172 512.795 707.405C530.027 724.626 557.947 724.626 575.169 707.405Z" fill="#F3F4F6" stroke="#414189" stroke-width="2.745"/>
<path d="M687.547 723.364C712.743 723.364 733.176 702.93 733.176 677.735C733.176 652.528 712.743 632.106 687.547 632.106C662.34 632.106 641.918 652.528 641.918 677.735C641.918 702.93 662.34 723.364 687.547 723.364Z" fill="#F3F4F6" stroke="#414189" stroke-width="2.745"/>
<path d="M825.099 723.364C850.294 723.364 870.728 702.941 870.728 677.735C870.728 652.539 850.294 632.106 825.099 632.106C799.903 632.106 779.47 652.539 779.47 677.735C779.47 702.941 799.903 723.364 825.099 723.364Z" fill="#F3F4F6" stroke="#414189" stroke-width="2.745"/>
<path d="M295.159 489.493L471.938 424.206C472.149 424.206 472.37 424.206 472.149 424.427L411.635 602.934C411.635 603.144 411.425 603.144 411.203 602.934L388.433 551.313C388.433 551.092 388.211 551.092 388.001 551.313L347.223 593.177H347.001L306.223 553.695V553.484L347.001 511.621C347.001 511.399 347.001 511.399 347.001 511.189L295.159 490.146C295.159 489.714 295.159 489.493 295.159 489.493Z" fill="#F3F4F6" stroke="#414189" stroke-width="2.745"/>
<path d="M894.428 771.296C890.031 771.296 889.245 768.583 888.99 767.542C888.348 767.808 887.562 767.929 886.786 767.929C884.583 767.929 882.002 766.767 881.216 764.696C878.757 757.441 883.287 727.395 884.073 721.946C880.573 725.324 877.727 727.007 875.003 727.262C874.87 727.262 874.748 727.262 874.615 727.262C873.574 727.262 872.666 726.742 872.156 725.966C867.228 718.845 879.532 682.84 887.174 661.986C887.44 661.333 887.562 660.945 887.562 660.812C892.224 646.702 896.377 634.786 899.866 624.287C906.345 605.382 911.395 590.353 917.353 571.448C920.598 560.827 923.312 550.073 925.383 539.197L925.77 537.636L979.916 542.819V543.085C980.049 548.523 980.304 564.581 979.916 568.989C976.937 607.065 962.816 645.141 952.461 672.862C948.961 682.187 945.982 690.349 943.645 697.337C942.87 699.674 942.095 702.399 941.187 705.245C936.657 720.141 930.433 740.729 920.333 760.808C917.353 766.9 912.691 767.542 910.753 767.542C910.365 767.542 910.099 767.542 909.712 767.542C908.416 769.092 906.611 770.001 904.529 770.133C903.244 770.133 901.948 769.613 900.907 768.583C899.611 770.388 897.02 771.429 894.428 771.296Z" fill="#F3F4F6" stroke="#414189" stroke-width="2.745"/>
<path d="M1001.68 384.801C997.536 385.454 993.383 385.842 989.241 385.842C979.396 385.842 966.316 383.771 959.715 374.18C951.675 362.396 954.266 347.755 956.858 333.645L957.124 331.962C958.287 325.483 958.929 319.137 959.582 312.913C961.011 299.446 962.894 286.61 968.52 277.174C979.141 260.595 996.883 270.695 1021.24 270.695C1024.22 270.695 1025.9 270.429 1029.13 270.695C1061.52 273.287 1081.46 278.47 1081.08 314.596C1080.94 331.054 1078.1 388.943 1077.19 407.084V407.206L1001.68 441.15V384.801Z" fill="#F3F4F6" stroke="#414189" stroke-width="2.745"/>
<path d="M1034.32 347.5L1041.57 342.195" stroke="#414189" stroke-width="2.745" stroke-linecap="round" stroke-linejoin="round"/>
<path d="M1001.55 384.801C1006.6 383.638 1009.32 383.383 1017.48 379.884" stroke="#414189" stroke-width="2.745" stroke-linecap="round" stroke-linejoin="round"/>
<path d="M979.783 330.146L978.753 332.992C978.232 334.554 978.487 336.359 979.661 337.655L979.916 338.042" stroke="#414189" stroke-width="2.745" stroke-linecap="round" stroke-linejoin="round"/>
<path d="M975.508 351.52C977.324 352.938 983.283 353.592 987.037 349.571" stroke="#414189" stroke-width="2.745" stroke-linecap="round" stroke-linejoin="round"/>
<path d="M995.587 331.442C997.459 331.442 998.954 329.924 998.954 328.075C998.954 326.203 997.459 324.708 995.587 324.708C993.726 324.708 992.22 326.203 992.22 328.075C992.22 329.924 993.726 331.442 995.587 331.442Z" fill="#414189" stroke="#414189" stroke-width="2.745"/>
<path d="M968.774 328.983C970.624 328.983 972.141 327.477 972.141 325.616C972.141 323.744 970.624 322.249 968.774 322.249C966.914 322.249 965.407 323.744 965.407 325.616C965.407 327.477 966.914 328.983 968.774 328.983Z" fill="#414189" stroke="#414189" stroke-width="2.745"/>
<path d="M962.816 599.556L960.224 544.635L925.515 539.452V539.197C927.332 530.382 929.015 521.189 930.698 512.252C936.79 479.747 943.003 446.201 954.787 428.58C966.183 414.726 977.191 405.655 1001.68 400.472C1001.68 400.472 1002.07 410.705 1012.42 415.501C1017.35 417.317 1022.4 418.225 1027.58 418.225C1042.73 418.225 1059.31 411.359 1076.93 397.88H1077.05H1077.19C1095.97 400.605 1113.58 408.767 1127.83 421.204C1143.37 434.926 1162.41 466.789 1173.16 491.276L1174.59 494.765L1116.17 521.322C1115.26 530.78 1116.95 539.718 1118.51 548.39C1121.61 564.969 1124.47 580.64 1110.99 599.556L1110.87 599.678L962.816 599.556Z" fill="#F3F4F6" stroke="#414189" stroke-width="2.745"/>
<path d="M1254.24 420.03C1247.9 409.288 1237.93 401.247 1226.01 397.371C1220.56 395.555 1214.87 394.647 1209.17 394.647C1204.64 394.647 1200.36 395.3 1196.22 396.33C1197.38 365.763 1184.83 337.134 1162.8 321.463C1149.6 312.016 1133.02 307.22 1113.19 307.22C1103.87 307.22 1094.41 308.25 1085.22 310.454C1085.35 277.683 1064.36 255.666 1030.17 252.953C1026.93 252.687 1023.7 252.565 1020.72 252.565C996.362 252.565 979.395 260.717 968.409 277.041C966.061 281.571 963.724 285.934 963.082 291.029V291.162L963.203 291.284C963.336 291.284 965.673 292.845 970.591 292.845C976.804 292.845 984.191 290.508 992.475 285.846C992.774 285.735 991.179 297.508 993.77 301.007C996.362 304.496 1001.16 306.312 1007.89 306.312C1011.52 306.179 1015.01 305.925 1018.51 305.149C1019.21 304.574 1015.8 325.096 1027.7 332.217L1027.84 332.316L1027.97 332.217C1028.1 332.084 1039.89 323.025 1050.64 323.025C1057.37 323.025 1062.16 326.513 1065.14 333.38C1072.78 351 1042.21 369.13 1041.96 369.263C1041.96 369.263 1035.48 409.93 1061.26 440.885C1075.37 457.73 1101.54 469.126 1126.54 469.126C1138.71 469.381 1150.76 466.401 1161.5 460.576C1164.48 458.893 1167.2 456.943 1169.93 454.751C1175.62 465.371 1185.72 474.309 1198.81 478.706C1204.25 480.522 1209.94 481.43 1215.65 481.43C1235.34 481.43 1252.43 470.034 1258 453.322C1261.63 442.18 1260.2 430.009 1254.24 420.03Z" fill="#F3F4F6" stroke="#414189" stroke-width="2.745"/>
<path d="M1196.09 396.197C1196.09 396.585 1196.09 396.983 1196.09 397.371C1194.79 421.204 1185.21 441.793 1169.8 454.485" stroke="#414189" stroke-width="2.745" stroke-linecap="round" stroke-linejoin="round"/>
<path d="M1104.91 1034.23C1093.63 1034.23 1083.28 1028.79 1077.05 1019.46C1076.67 1018.82 1075.76 1018.82 1075.37 1019.46C1071.23 1025.42 1065.53 1029.83 1058.67 1032.29L1058.28 1032.42C1057.76 1030.22 1057.5 1027.88 1056.99 1025.56C1054.9 1016.23 1052.45 1006.25 1049.85 995.631C1047.66 986.561 1045.32 977.114 1043.12 967.135V967.014C1041.44 959.627 1039.5 952.372 1037.43 944.476C1028.22 910.531 1021.1 875.955 1016.05 840.98C1014.12 826.084 1012.3 809.117 1010.48 790.467C1010.35 789.437 1009.05 789.171 1008.54 790.079C1004.66 797.334 1000.52 804.721 996.24 811.842C975.12 847.847 965.673 875.822 963.336 908.205C962.694 916.49 962.949 926.723 963.082 939.548C963.204 947.455 963.336 956.515 963.336 966.493V966.881C963.336 986.694 962.561 1005.86 961.133 1025.29L961.011 1026.85C960.878 1029.18 960.612 1031.51 960.357 1033.71V1034.23C949.869 1033.59 940.156 1027.88 934.198 1019.33C933.811 1018.69 932.902 1018.69 932.515 1019.33C922.403 1034.23 902.07 1038.64 886.664 1028.92C882.644 1026.46 879.277 1023.22 876.686 1019.33C876.298 1018.69 875.39 1018.82 875.002 1019.33C869.177 1027.76 859.852 1033.2 849.618 1033.97H849.353V1033.71C849.618 1030.99 849.74 1028.27 850.006 1025.29C850.526 1019.08 850.914 1012.48 851.435 1005.48C852.21 994.081 853.118 981.001 854.281 967.268V966.881L854.669 958.973C856.219 923.622 857.382 900.176 863.739 857.305C876.298 771.684 947.012 630.766 947.92 628.949L969.682 600.852L1111.51 597.485L1111.64 597.607C1140.53 659.262 1136.89 726.609 1133.66 785.937C1131.98 817.413 1130.29 847.071 1133.66 873.109C1136.64 897.064 1140.53 915.46 1144.67 935.018C1146.74 944.986 1148.94 955.352 1151.01 966.748L1151.79 971.156C1154.77 987.347 1157.75 1002.75 1158.92 1025.29C1159.04 1028.01 1159.18 1030.74 1159.31 1033.45V1033.71H1159.04C1149.46 1032.54 1140.78 1027.24 1135.34 1019.21C1134.95 1018.56 1134.05 1018.56 1133.66 1019.21C1126.67 1028.79 1116.17 1034.23 1104.91 1034.23Z" fill="#F3F4F6" stroke="#414189" stroke-width="2.745"/>
<path d="M947.92 628.949C956.736 610.299 962.694 597.74 962.694 597.74H1110.87L1110.99 597.873C1115.65 607.84 1119.54 618.074 1122.65 628.562L1122.78 628.949H947.92Z" fill="#F3F4F6" stroke="#414189" stroke-width="2.745"/>
<path d="M1110.73 598.77L962.816 597.74L959.449 510.569" stroke="#414189" stroke-width="2.745" stroke-linecap="round" stroke-linejoin="round"/>
<path d="M1039.37 682.054C1038.98 682.054 1038.46 681.932 1038.07 681.799C1037.55 681.666 1037.3 681.279 1037.16 680.758C1036.39 678.953 1036.25 673.903 1043.77 659.394C1039.62 663.149 1024.08 676.228 1012.17 676.228C1008.8 676.361 1005.57 675.066 1003.23 672.729C1003.1 672.729 1002.71 672.729 1002.32 672.729C1000.52 672.729 995.975 672.474 993.904 669.362C992.475 667.291 992.608 664.445 994.037 660.812C993.261 659.915 989.241 654.987 995.454 646.315C1005.57 632.194 1012.82 623.899 1031.72 608.748C1050.38 593.853 1114.23 555.644 1118.38 553.185L1104.13 524.689L1172 488.684L1172.91 490.755C1189.61 531.943 1193.89 554.603 1187.67 576.631C1180.42 602.657 1132.5 624.94 1104 638.274C1096.75 641.652 1090.53 644.499 1086.51 646.824C1075.25 653.048 1065.53 662.108 1057.63 669.362C1049.6 676.494 1043.51 682.054 1039.37 682.054Z" fill="#F3F4F6" stroke="#414189" stroke-width="2.745"/>
<path d="M1118.51 553.44L1144.41 556.031" stroke="#414189" stroke-width="2.745" stroke-linecap="round" stroke-linejoin="round"/>
<path d="M994.158 660.945C1008.41 646.702 1033.02 624.674 1033.02 624.674" stroke="#414189" stroke-width="2.745" stroke-linecap="round" stroke-linejoin="round"/>
<path d="M1003.23 672.607C1003.23 672.607 1025.25 651.874 1044.68 637.632" stroke="#414189" stroke-width="2.745" stroke-linecap="round" stroke-linejoin="round"/>
<path d="M1085.08 310.454L1083.4 332.604" stroke="#414189" stroke-width="2.745" stroke-linecap="round" stroke-linejoin="round"/>
<path d="M1104.13 524.689L1092.6 501.498" stroke="#414189" stroke-width="2.745" stroke-linecap="round"/>
</g>
<defs>
<clipPath id="clip0_89_4744">
<rect width="1772" height="1329" fill="white"/>
</clipPath>
</defs>
</svg>
